<?xml version="1.0" encoding="utf-8"?>
<!-- Generator: Adobe Illustrator 21.0.0, SVG Export Plug-In . SVG Version: 6.00 Build 0)  -->
<svg xmlns:xlink="http://www.w3.org/1999/xlink" version="1.1" xmlns="http://www.w3.org/2000/svg" x="0px" y="0px"
	 viewBox="0 0 1200 750" style="enable-background:new 0 0 1200 750;" xml:space="preserve">
<style type="text/css">
	.st0{clip-path:url(#SVGID_1_);fill:url(#SVGID_2_);}
	.st1{clip-path:url(#SVGID_1_);fill:url(#SVGID_3_);}
	.st2{clip-path:url(#SVGID_1_);}
	.st3{clip-path:url(#SVGID_4_);fill:url(#SVGID_5_);}
	.st4{clip-path:url(#SVGID_1_);fill:#73A6E6;}
	.st5{fill:#5D8DCF;}
	.st6{clip-path:url(#SVGID_1_);fill:#5D8DCF;}
	.st7{clip-path:url(#SVGID_1_);fill:#456CB0;}
	.st8{clip-path:url(#SVGID_1_);fill:#27528C;}
	.st9{fill:#93F5E5;}
	.st10{fill:#5DC2AE;}
	.st11{fill:#164377;}
	.st12{fill:#105697;}
	.st13{fill:none;}
	.st14{fill:#FFFFFF;}
	.st15{fill:#D2D3D3;}
	.st16{opacity:0.21;}
	.st17{fill:#182B3A;}
</style>
<g id="bg">
	<g>
		<defs>
			<rect id="SVGID_8_" x="1" y="1" width="1200.3" height="749"/>
		</defs>
		<clipPath id="SVGID_1_">
			<use xlink:href="#SVGID_8_"  style="overflow:visible;"/>
		</clipPath>
		<linearGradient id="SVGID_2_" gradientUnits="userSpaceOnUse" x1="1262.5923" y1="-216.1832" x2="344.1454" y2="632.0418">
			<stop  offset="0" style="stop-color:#C4E5F7"/>
			<stop  offset="0.9936" style="stop-color:#FFFFFF"/>
		</linearGradient>
		<rect x="-97.3" y="-30.4" class="st0" width="1422.9" height="826"/>
		<linearGradient id="SVGID_3_" gradientUnits="userSpaceOnUse" x1="435.8" y1="651.5125" x2="598.0044" y2="-56.3912">
			<stop  offset="0" style="stop-color:#0D2136"/>
			<stop  offset="0.9987" style="stop-color:#406EAE"/>
		</linearGradient>
		<path class="st1" d="M902.7,538.1c-53.4-22-123.1-7.8-163.1-49.4c-24.8-25.7-29.1-64.8-48.2-95c-29-45.9-86.9-64-140.8-69.8
			c-48.9-5.3-102.7-4.9-140.4-36.5c-34.2-28.8-46.3-77.7-80.7-106.3c-39.5-32.8-96.8-30.2-147.8-23.5
			c-44.3,5.8-88.4,13.4-132.2,22.6c-15.1,3.2-35.1,5.6-55,9.3V789h899c5.1-4,10.2-8,15.2-12.2c27.6-23.2,53.2-50.8,64.5-85.1
			C992.7,632.9,960,561.7,902.7,538.1z"/>
		<g class="st2">
			<defs>
				<path id="SVGID_12_" d="M142.3,147.1c50.9-6.7,108.2-9.4,147.8,23.5c34.4,28.6,46.5,77.5,80.7,106.3
					c37.6,31.6,91.5,31.3,140.4,36.5c53.9,5.8,111.8,24,140.8,69.8c19.1,30.2,23.4,69.3,48.2,95c40,41.6,109.7,27.5,163.1,49.4
					c57.3,23.6,90,94.7,70.6,153.6c-11.3,34.2-36.9,61.9-64.5,85.1c-54.8,46.1-120.3,79.3-189.8,96.2
					c-87.7,21.3-179.2,16.8-269.4,15.4c-109.5-1.7-219.9,1.3-327.4-19.1c-55-10.4-110.1-27.5-155.2-60.8
					c-60.2-44.4-97.1-113.3-127.8-181.5c-12.3-27.3-24.1-55.8-23.7-85.7c0.6-54,39.7-98.5,65.3-146c18.8-34.8,30.8-73.2,35.4-112.5
					c2.7-22.6-4-55.9,16.4-71.4c27.3-20.8,84-24.2,117-31.2C53.9,160.5,98,152.9,142.3,147.1z"/>
			</defs>
			<clipPath id="SVGID_4_">
				<use xlink:href="#SVGID_12_"  style="overflow:visible;"/>
			</clipPath>
			<linearGradient id="SVGID_5_" gradientUnits="userSpaceOnUse" x1="561.119" y1="596.8694" x2="774.8809" y2="-259.9155">
				<stop  offset="0" style="stop-color:#0D2136"/>
				<stop  offset="0.9987" style="stop-color:#406EAE"/>
			</linearGradient>
			<rect x="-44.9" y="-7" class="st3" width="1317.3" height="785.5"/>
		</g>
		<circle class="st4" cx="-15.4" cy="108.4" r="25"/>
		<circle class="st4" cx="1010.7" cy="690.1" r="34.6"/>
		<path class="st4" d="M988.5,762.5c6.7-64.2-39.9-121.7-104.1-128.5c-8.2-0.9-16.2-0.8-24,0c-5.2-22.7-24.4-40.6-48.8-43.1
			c-20.2-2.1-39,6.8-50.5,21.9c-22.3-0.3-43.1,8.2-58.7,22.5c-5.2-5.7-12.3-9.5-20.5-10.4c-16.9-1.8-32.1,9.8-35.2,26.1
			c-7.1-7.1-16.6-11.9-27.3-13c-11.1-1.2-21.6,1.8-30.2,7.6c-8.9-14-23.8-24-41.6-25.9c-23.9-2.5-45.9,10.5-56,30.8
			c-10.8-9.3-24.4-15.5-39.7-17.1c-18.1-1.9-35.3,3.1-49.2,12.7c-4.2-11-14.3-19.4-26.9-20.7c-15.1-1.6-28.7,7.4-33.8,21
			c-9-10.4-21.8-17.5-36.5-19.1c-9.7-1-19,0.5-27.4,4c-7.7-18.2-24.8-31.7-45.8-33.9c-7.1-0.7-14.1-0.1-20.6,1.7
			c-13.1-24.3-34.7-43.7-61.2-53.8c2.1-4,3.6-8.5,4.1-13.3c1.7-15.8-7.1-30.4-20.7-36.9c10.8-9,18.2-22.1,19.8-37.2
			c2.1-20.4-7-39.4-22.3-50.8c15.4-1.1,28.2-13.1,29.9-28.9c1.3-12.3-4.4-23.6-14-30.2c6.2-5.2,10.5-12.7,11.4-21.4
			c1.9-17.8-11.1-33.8-28.9-35.6c-3.7-0.4-7.4-0.1-10.8,0.7c3.4-6.3,5.6-13.4,6.4-20.9c2.8-26.8-13.5-51.2-37.9-59.7
			c0.5-2.1,0.9-4.2,1.1-6.3c2.6-24.9-15.5-47.2-40.4-49.8c-24.9-2.6-47.2,15.5-49.8,40.4c-0.6,5.3-0.2,10.4,1,15.3l-137.9,39.1
			l60.1,561.1l960.7,89.8l-4-33.6C934.9,864.2,982.5,820.5,988.5,762.5z"/>
		<g class="st2">
			
				<rect x="113" y="396.7" transform="matrix(0.7397 0.673 -0.673 0.7397 492.4743 90.7058)" class="st5" width="32" height="570.4"/>
			
				<rect x="147.7" y="420.2" transform="matrix(0.7397 0.673 -0.673 0.7397 515.0692 79.4142)" class="st5" width="14.3" height="570.4"/>
			
				<rect x="95.9" y="373.1" transform="matrix(0.7397 0.673 -0.673 0.7397 469.8842 102.0004)" class="st5" width="14.3" height="570.4"/>
		</g>
		<path class="st6" d="M1058.5,734.1c1-27.7-20.7-51-48.4-52c-11.3-0.4-21.9,3-30.5,9c-16.5-15-38.2-24.4-62.2-25.3
			c-32.5-1.2-61.8,13.6-80.5,37.2c-15.6-11.9-34.8-19.3-55.9-20.1c-3.5-0.1-6.9-0.1-10.3,0.2c-1.8-13.7-13.3-24.6-27.6-25.1
			c-10.2-0.4-19.3,4.6-24.7,12.3c-8.7-9.1-20.9-15-34.5-15.5c-11.9-0.4-23,3.3-31.9,10c-8.4-7.3-19.2-11.8-31.1-12.2
			c-26.5-1-48.9,18.8-51.8,44.7c-1.1-0.5-2.2-1.1-3.3-1.6c-12-5.1-24.9-5.1-36.3-1c-1.7-17-15.8-30.6-33.3-31.2
			c-9.6-0.3-18.4,3.2-25,9.3c-8.2-6.7-18.6-10.9-29.9-11.3c-21.2-0.8-39.8,11.8-47.9,30.1c-7.2-3.7-15.2-5.9-23.8-6.2
			c-6.7-0.2-13.1,0.7-19.2,2.6c-10.2-32.2-39.7-56-75.3-57.3c-13-0.5-25.4,2.1-36.5,7.1c-1.1-13.7-12.3-24.8-26.5-25.3
			c-1.5-0.1-3,0-4.4,0.2c-5.8-11.9-17.9-20.4-32.1-20.9c-3.1-0.1-6,0.2-8.9,0.8c-1.9-17.3-12.6-32.2-27.7-39.6
			c5.5-15.1,3.3-31.4-4.8-44.2c3.8-3.5,6.2-8.4,6.4-14c0.3-9.3-5.8-17.4-14.3-20c5.6-5.9,9.2-13.8,9.5-22.6
			c0.5-12.8-6.1-24.3-16.3-30.7c7.3-8.4,11.8-19.2,12.2-31.1c0.7-19.7-10.1-37.2-26.3-46c4.3-4.8,7-11.2,7.3-18.2
			c0.6-15.9-11.9-29.3-27.8-29.9c-0.6,0-1.3,0-1.9,0c1.4-4.6,2.2-9.4,2.4-14.4c0.9-24.1-13.5-45.2-34.4-54.1
			c1.2-5.7,2-11.5,2.2-17.5c2-54.1-40.3-99.5-94.4-101.5c-54.1-2-99.5,40.3-101.5,94.4c-2,54.1,40.3,99.5,94.4,101.5
			c5.2,0.2,10.4,0,15.4-0.7l-28.2,353.7l244.2,240.5l812.4-17.1l18.7-99C1038.5,779.3,1057.6,759.2,1058.5,734.1z"/>
		<path class="st7" d="M826.9,812.2c6.9-55.3-32.2-105.7-87.5-112.7c-7-0.9-13.9-1-20.7-0.5c-4.1-19.6-20.3-35.4-41.3-38.1
			c-17.4-2.2-33.8,5.2-43.9,18c-19.3-0.6-37.3,6.3-51,18.3c-4.4-5-10.4-8.4-17.5-9.3c-14.5-1.8-27.8,7.8-30.8,21.9
			c-6-6.3-14.1-10.6-23.3-11.7c-9.5-1.2-18.7,1.1-26.2,6c-7.4-12.2-20.1-21.1-35.4-23c-20.6-2.6-39.8,8.2-48.9,25.6
			c-9.2-8.2-20.8-13.8-33.9-15.4c-15.6-2-30.5,2-42.6,10.1c-3.4-9.6-12-17-22.8-18.3c-13-1.6-24.9,5.9-29.5,17.5
			c-7.6-9.1-18.5-15.5-31.2-17.1c-8.3-1-16.4,0.1-23.7,3c-6.3-15.8-20.8-27.8-38.9-30.1c-6.1-0.8-12.1-0.3-17.8,1.1
			c-10.9-21.2-29.1-38.3-51.8-47.5c1.9-3.4,3.2-7.3,3.8-11.4c1.7-13.6-5.5-26.3-17.2-32.2c9.5-7.6,16.1-18.7,17.8-31.7
			c2.2-17.6-5.3-34.1-18.4-44.2c13.3-0.7,24.6-10.8,26.3-24.4c1.3-10.6-3.4-20.5-11.5-26.3c5.4-4.4,9.3-10.8,10.2-18.3
			c1.9-15.3-8.9-29.3-24.3-31.2c-3.2-0.4-6.4-0.2-9.4,0.4c3-5.4,5.1-11.4,5.9-17.9c2.9-23.1-10.7-44.4-31.6-52.1
			c0.5-1.8,0.9-3.6,1.1-5.4c2.7-21.4-12.5-41-33.9-43.7c-21.4-2.7-41,12.5-43.7,33.9c-0.6,4.5-0.3,9,0.6,13.2l-119.7,31.2L-94,834.7
			l826.8,94.8l-2.8-29C778.8,899,820.6,862.2,826.9,812.2z"/>
		<path class="st8" d="M793.5,816.1c3.1-23-13-44.1-35.9-47.2c-9.4-1.3-18.4,0.7-26.1,4.9c-12.5-13.8-29.7-23.4-49.6-26.1
			c-26.9-3.6-52.4,6.2-69.9,24.3c-12-11.2-27.4-18.9-44.8-21.2c-2.9-0.4-5.7-0.6-8.5-0.7c-0.4-11.6-9-21.5-20.8-23.1
			c-8.4-1.1-16.4,2.2-21.5,8.2c-6.5-8.3-16.1-14.2-27.4-15.7c-9.9-1.3-19.4,0.9-27.3,5.7c-6.4-6.7-14.9-11.4-24.8-12.7
			c-21.9-3-42.2,11.6-46.7,32.9c-0.9-0.5-1.7-1.1-2.6-1.6c-9.6-5.2-20.3-6.3-30.1-3.8c0-14.3-10.6-26.7-25.1-28.7
			c-7.9-1.1-15.6,1.2-21.5,5.7c-6.3-6.2-14.5-10.6-23.9-11.8c-17.6-2.4-34.1,6.5-42.2,21.1c-5.7-3.7-12.2-6.2-19.3-7.1
			c-5.5-0.7-11-0.5-16.1,0.6c-5.8-27.5-28.4-49.7-57.9-53.7c-10.8-1.5-21.3-0.3-30.9,2.9c0.2-11.5-8.2-21.6-19.9-23.2
			c-1.2-0.2-2.5-0.2-3.7-0.2c-3.9-10.4-13.2-18.4-25-20c-2.5-0.3-5-0.3-7.4-0.1c-0.1-14.6-7.8-27.8-19.8-35.2
			c5.8-12.1,5.3-25.8-0.4-37.1c3.4-2.6,5.8-6.5,6.5-11.1c1-7.7-3.4-14.9-10.3-17.8c5.2-4.5,8.8-10.7,9.8-18
			c1.4-10.6-3.1-20.7-11-26.8c6.7-6.4,11.4-14.9,12.7-24.8c2.2-16.3-5.3-31.7-18.1-40.4c4-3.7,6.8-8.7,7.5-14.5
			c1.8-13.2-7.5-25.3-20.7-27.1c-0.5-0.1-1.1-0.1-1.6-0.1c1.5-3.7,2.6-7.6,3.2-11.8c2.7-19.9-7.5-38.6-24.1-47.7
			c1.5-4.6,2.6-9.4,3.3-14.4c6.1-44.8-25.3-86-70.1-92.1c-44.8-6.1-86,25.3-92.1,70.1c-6.1,44.8,25.3,86,70.1,92.1
			c4.3,0.6,8.6,0.8,12.9,0.7l-52.4,291.5L53,880.6l676.2,52.5l23.7-80.7C773.2,851.9,790.7,836.8,793.5,816.1z"/>
		<g class="st2">
			<g>
				<path class="st9" d="M294.4,486.1c-3.3-7.4-7.1-14.6-11.3-21.5c-4.3-7.2-9.3-14.9-10.2-22.9l-17.6,14.5
					c-0.2,0.1-0.4,0.3-0.6,0.5c-4.7,5.1,11,26.9,34.9,48.7c2.2,2,4.4,3.9,6.6,5.8c1.2-2.7,2.1-5.4,2.3-8.4
					C299,497,296.8,491.4,294.4,486.1z"/>
				<path class="st10" d="M341.4,535.5c0.2-0.2,0.3-0.4,0.4-0.6l50.2-74l-67.6-61.5L273,441.6c0.9,8,5.8,15.8,10.2,22.9
					c4.2,6.9,8,14.1,11.3,21.5c2.4,5.3,4.5,10.9,4.1,16.7c-0.2,2.9-1.1,5.7-2.3,8.4C317.7,529.4,337.2,540.1,341.4,535.5z"/>
			</g>
			<g>
				<path class="st11" d="M389.1,255.6c-30.5,37.4-62.6,73.7-101.7,101.6c-15.7,11.2-32.5,21-51,26.6c-12.8,3.9-26.5,5.6-39.8,4.1
					L172,416.7l0,0c20.5,18.6,49.6,21.9,70.4,7.8l190.3-129.1L389.1,255.6z"/>
				<path class="st12" d="M236.4,383.8c18.4-5.6,35.3-15.4,51-26.6c39.2-27.9,71.2-64.2,101.7-101.6l-3.2-2.9
					c-22.9-20.8-56.8-19.7-75.5,2.2l-113.7,133C209.9,389.3,223.6,387.7,236.4,383.8z"/>
			</g>
			<g>
				<path class="st12" d="M490.9,473.5c19.7-18.6,39.4-37.2,59.1-55.8c-2-11.7-8-23.1-17.9-32L485.2,343L378.4,537.7
					c16.8-0.8,33.7-6.1,48.7-14C451.1,511,471.2,492.1,490.9,473.5z"/>
				<path class="st11" d="M550,417.7c-19.7,18.6-39.4,37.2-59.1,55.8c-19.8,18.6-39.8,37.5-63.8,50.2c-15,7.9-31.9,13.2-48.7,14
					l-3.8,6.9c-12.1,22.1-6.1,50.7,14.4,69.4l148-152.9C548.5,449.3,552.7,433.2,550,417.7z"/>
			</g>
			<path class="st13" d="M377.8,491.9c3.7,1.7,7.2,3,10.3,3.9C385,494.9,381.5,493.6,377.8,491.9z"/>
			<path class="st13" d="M357.7,480.4c2.8,1.9,5.6,3.7,8.4,5.3C363.4,484,360.6,482.3,357.7,480.4z"/>
			<path class="st13" d="M366.1,485.7c2.7,1.6,5.4,3.1,7.9,4.4C371.5,488.7,368.8,487.3,366.1,485.7z"/>
			<path class="st9" d="M315.1,443.3c-14.8-16.3-24.7-32-27-42.7L277,415.4c-4.2,5.4,0.1,17.4,10.2,31.5c4.4-1.6,9-2.8,13.8-3.3
				C305.6,443.2,310.4,443.3,315.1,443.3z"/>
			<path class="st10" d="M377.8,491.9c-1.2-0.6-2.5-1.2-3.8-1.8c-2.6-1.3-5.2-2.8-7.9-4.4c-2.7-1.6-5.5-3.4-8.4-5.3
				c-8.5-5.7-17.5-12.8-26.4-20.9c-5.9-5.4-11.3-10.8-16.2-16.2c-4.7,0-9.5-0.1-14.2,0.4c-4.7,0.5-9.3,1.6-13.8,3.3
				c6.9,9.7,16.4,20.3,27.7,30.6c27.9,25.4,57.2,39.8,65.5,31.9l13.7-12.5c-1.8-0.2-3.8-0.6-5.9-1.2
				C385,494.9,381.5,493.6,377.8,491.9z"/>
			<path class="st14" d="M334.4,442c13-2.9,23.8-11.5,34-20c65.5-54.5,126.1-114.8,181.1-179.9c-3.8-3.1-7.6-6.3-11.4-9.7
				c-20.5-18.7-35.9-39.4-44.3-56.8c-45.9,28.9-84.5,64.1-113.4,102.5l-92.2,122.5c2.3,10.8,12.2,26.4,27,42.7
				C321.6,443.3,328.1,443.4,334.4,442z"/>
			<path class="st15" d="M598.7,271.1c-14.8-5.5-32.2-15.4-49.3-29C494.5,307.2,433.8,367.5,368.3,422c-10.2,8.5-21,17.1-34,20
				c-6.3,1.4-12.8,1.4-19.3,1.3c4.9,5.4,10.4,10.8,16.2,16.2c8.9,8.1,17.9,15.1,26.4,20.9c2.8,1.9,5.6,3.7,8.4,5.3
				c2.7,1.6,5.4,3.1,7.9,4.4c1.3,0.6,2.5,1.3,3.8,1.8c3.7,1.7,7.2,3,10.3,3.9c2.1,0.6,4.1,1,5.9,1.2l113.3-103.3
				C542.9,361.2,574.3,319.4,598.7,271.1z"/>
			<path class="st9" d="M549.4,242.1c34.9-41.4,67.6-84.8,97.6-129.9c-56.5,13-108.4,35.1-153.3,63.3c8.4,17.4,23.7,38.1,44.3,56.8
				C541.8,235.8,545.6,239,549.4,242.1z"/>
			<path class="st10" d="M598.7,271.1c23.9-47.5,41.1-101.3,48.7-159v0h0c-0.1,0-0.2,0.1-0.4,0.1c-30.1,45.1-62.7,88.5-97.6,129.9
				C566.5,255.7,583.9,265.6,598.7,271.1z"/>
			<path class="st16" d="M528.1,318.2c-1.5-14.6-8.2-28.7-19.8-39.3c-25.2-22.9-64.2-21.1-87.2,4.1c-8.6,9.5-13.7,20.9-15.4,32.7
				c-2.8,19.6,3.8,40.2,19.5,54.5c25.2,22.9,64.2,21.1,87.2-4.1C524.6,352.5,529.8,335,528.1,318.2z"/>
			<g>
				<path class="st9" d="M475.9,333.7c21.2-3.3,40.2-15.7,54.4-31.8c-1.5-14.6-8.2-28.7-19.8-39.3c-25.2-22.9-64.2-21.1-87.2,4.1
					c-8.6,9.5-13.7,20.9-15.4,32.7c2.4,4.5,4.9,8.9,8.1,12.9C429.8,329.6,454,337.1,475.9,333.7z"/>
				<path class="st10" d="M530.4,301.9c-14.2,16.1-33.2,28.5-54.4,31.8c-22,3.4-46.1-4.1-59.9-21.5c-3.2-4-5.7-8.4-8.1-12.9
					c-2.8,19.6,3.8,40.2,19.5,54.5c25.2,22.9,64.2,21.1,87.2-4.1C526.9,336.2,532.1,318.7,530.4,301.9z"/>
			</g>
			<g>
				<path class="st14" d="M509.3,281.9l-80.4-0.2c-1.8,2.8-3.4,5.7-4.6,8.7l89.5,0.3C512.6,287.6,511.1,284.6,509.3,281.9z"/>
				<path class="st17" d="M513.8,290.6l-89.5-0.3c-1.6,4.1-2.7,8.4-3.1,12.7l95.7,0.3C516.4,299,515.4,294.7,513.8,290.6z"/>
				<path class="st17" d="M501.4,272.6c-19.7-17.9-50.1-16.4-68,3.2c-1.7,1.8-3.2,3.8-4.5,5.8l80.4,0.2
					C507.1,278.5,504.5,275.4,501.4,272.6z"/>
				<path class="st14" d="M495.9,348.1l-54-0.2C458.2,359.1,479.7,359,495.9,348.1z"/>
				<path class="st17" d="M504.6,340.6c3.6-4,6.5-8.4,8.5-13.1l-88.3-0.3c2.6,6.1,6.6,11.8,11.8,16.6c1.7,1.5,3.4,2.9,5.3,4.2
					l54,0.2C499,346,501.9,343.5,504.6,340.6z"/>
				<path class="st14" d="M516.9,303.3l-95.7-0.3c-0.9,8.2,0.3,16.5,3.6,24.2l88.3,0.3C516.4,319.8,517.7,311.4,516.9,303.3z"/>
			</g>
		</g>
		<circle class="st4" cx="953.2" cy="578.9" r="20.5"/>
		<circle class="st4" cx="730.3" cy="566.3" r="6.7"/>
		<circle class="st4" cx="161.6" cy="249.2" r="10.7"/>
		<circle class="st4" cx="59.8" cy="107.3" r="16.9"/>
		
			<ellipse transform="matrix(0.9997 -2.470125e-02 2.470125e-02 0.9997 -14.5762 14.8702)" class="st6" cx="594.6" cy="597.4" rx="24.9" ry="24.9"/>
		
			<ellipse transform="matrix(0.9997 -2.470053e-02 2.470053e-02 0.9997 -17.991 26.4975)" class="st6" cx="1063.6" cy="741.5" rx="22.4" ry="22.4"/>
		
			<ellipse transform="matrix(0.9997 -2.470137e-02 2.470137e-02 0.9997 -12.8515 5.3828)" class="st6" cx="211.5" cy="522.9" rx="11.7" ry="11.7"/>
		
			<ellipse transform="matrix(0.9997 -2.470578e-02 2.470578e-02 0.9997 -14.3474 9.5824)" class="st6" cx="380.6" cy="585.4" rx="6.6" ry="6.6"/>
		
			<ellipse transform="matrix(0.9997 -2.469671e-02 2.469671e-02 0.9997 -11.3789 5.1478)" class="st6" cx="202.7" cy="463.2" rx="6.6" ry="6.6"/>
		
			<ellipse transform="matrix(0.9997 -2.469961e-02 2.469961e-02 0.9997 -5.4984 1.2808)" class="st8" cx="49.1" cy="223.2" rx="18.3" ry="18.3"/>
		
			<ellipse transform="matrix(0.9997 -2.469976e-02 2.469976e-02 0.9997 -9.7925 2.119)" class="st8" cx="80.9" cy="397.5" rx="7.6" ry="7.6"/>
		
			<ellipse transform="matrix(0.9997 -2.469962e-02 2.469962e-02 0.9997 -17.0891 17.6027)" class="st8" cx="704" cy="700.6" rx="18.3" ry="18.3"/>
		
			<ellipse transform="matrix(0.9997 -2.470578e-02 2.470578e-02 0.9997 -15.6233 20.6212)" class="st8" cx="826.7" cy="642.6" rx="6.6" ry="6.6"/>
		
			<ellipse transform="matrix(0.9997 -2.470624e-02 2.470624e-02 0.9997 -17.0106 22.5595)" class="st8" cx="904.5" cy="699.7" rx="9.2" ry="9.2"/>
		
			<ellipse transform="matrix(0.9997 -2.470046e-02 2.470046e-02 0.9997 -14.139 3.5878)" class="st8" cx="138.2" cy="574.1" rx="25.4" ry="25.4"/>
		
			<ellipse transform="matrix(0.9997 -2.470315e-02 2.470315e-02 0.9997 -16.4854 6.1398)" class="st8" cx="240.3" cy="670.3" rx="11.2" ry="11.2"/>
		
			<ellipse transform="matrix(0.9997 -2.470190e-02 2.470190e-02 0.9997 -16.1469 7.7867)" class="st8" cx="307.1" cy="657.5" rx="8.6" ry="8.6"/>
	</g>
</g>
<g id="template">
</g>
<g id="text">
</g>
</svg>
