<svg id="Layer_1" data-name="Layer 1" xmlns="http://www.w3.org/2000/svg" viewBox="0 0 5669.29 1190.55">
    <defs>
        <style>
            .cls-1{fill:#1a91a1;}.cls-2{fill:#fff;}.cls-3{fill:#676767;}.cls-4{fill:#c8cacb;}.cls-5{fill:#f48071;}.cls-6{fill:#817e7e;}.cls-7{fill:#fdb91f;}.cls-8{fill:#f4a31e;}.cls-9{fill:#f0b97d;}.cls-10{fill:#fed299;}.cls-11{fill:#49c1ba;}.cls-12{fill:#e6e7e8;}.cls-13{fill:#e0e1e3;}.cls-14{font-size:1000px;fill:#1991a1;font-family:MVBoli,
            MV Boli;}
        </style>
    </defs>
    <title>Artboard 1</title>
    <path class="cls-1"
          d="M654,1184.46c321.11,0,583-261.91,583-583s-261.91-583-583-583S71,280.32,71,601.44,332.91,1184.46,654,1184.46Z"/>
    <path class="cls-2"
          d="M1015.67,143.86c107.58,83.88,183.72,204.37,208.42,342.08a49.21,49.21,0,0,1-5.32-11.11c-11.31,3.6-11.67,3.89-25,6.05l-.58.79c-5.3,7.35.27,4.23-9.05,11.92-11.11,9.09-18.34,21.5-30.73,28.85-1.5,12.86,1.1,15.74-2.22,31-1.3,5.63-7.79,20.79-15.38,19.64-2.4-.44-12.61-25-15-31.76-4.08-11.55-8.71-20.08-11.67-33.34-1.68-7.09-2.8-20.65-4.45-25.41-8,1.16-7.59,6.09-15.2.88-5.37-3.75-3-6.07-5.93-11.71-6.29-5.78-12.77-11.55-19.26-17.32-5-1.58-24.27,1.16-32.42.3-14.64-1.31-15.92-.44-24.63-11.85-15.38.74-14.08,6.35-29.09-6.21-9.83-8.09-8-21.08-22.22-13.72-.56,11.85,5.37,14.46,10.75,19.94,3.88,4.19,8.71,7.09,10.73,12.71.2.16,1.14,5.49,1.32,6.21,13.88.88,17.22-5.62,24.81-11.11,7.43,6.77.18,7.95,10.93,13.27,8.51,4.19,6.85,1.74,12.41,8.51,2.78,9.09-19.08,33.78-26.31,38.26-5.54,3.46-8.51,1.44-13.5,5.48-7.39,6.07.92,5.19-12,9.83-13.88,4.91-27.61,15.3-42.23,16.16-3.15-8.37-6.31-16.88-9.43-25.39-9.27-29-8.89-17.76-18.36-32.76-4.44-6.51-2.6-10.69-5.56-16.46-2.06-4.34-5.18-6.21-8-11.53-4.26-8.23-9.25-21.08-19.08-19.78-2,6.49,9.09,28.43,11.85,33.78s7.21,7.65,8.53,15.3c1.86,10.53-.38,9.23,5.56,16.28,12.42,14.58-.56,12,18.72,26.27,14.45,10.69,10.75,13.86,16.86,28.15,9.43,2.6,37.6-9.67,42.4-6.07,5.75,10-6.65,25.83-9.81,34.5-10.37,29-28.53,28.59-42.41,50.8-7.59,12-11.11,13.58-18.14,28-8,16.3,16.1,61.49,1.68,80.39-3.15,4.34-13.34,6.93-26.13,20.08-13.52,14.29.36,11.83-4.83,35.64-4.06,5.49-9.07,5.78-14.07,9.69-1.84,5.62-.36,10.07-3.52,17-3.33,8.37-3.88,3.89-8.71,10.69-3.52,5.32-3.14,7.49-7.21,12.41-3.52,4.48-5.39,5.76-8.71,8.67-16.12,14.44-50.76,14.86-53.72,12.85-8.17-6.77-2.6-8.51-4.63-18-2-8.37-6.55-15.39-10.37-21.85l-.4-.68a49.1,49.1,0,0,1-4.45-9.09c-6.67-20.5-4.24-36.06-15.91-56.86-14.64-26.87,8.13-40.86,7.21-56-.38-4-1.86-6.49-2.24-9.67-2.78-16.74-4.44-31.74-15.92-44.89-12.61-14.29-10.93-9.25-6.87-32.76,5.19-27-6.67-20.08-23.34-20.78-8.17-24.53-24.09-12.56-40-5.33-10,4.46-13.7-1.3-25,.28-25.19,3.32-5.37,13.86-39.08-12.13-14.07-10.83-4.61-5.33-13-18.9-2.78-4.91-11.31-11.41-15.2-16.32-12.77-15.58,2.42-31.31.18-49.21-3.9-33.2-9.45-4.34,9.63-44.45,10-21.36,25.19-21.52,29.09-31,3.33-8.49,1.1-14.58,7.41-22.36,5.56-6.35,13.52-5.05,16.66-15,4.44-12.27-4.08-13.85-13.34-14.15-3.88-12.85-3.88-9.67-.92-21.52,1.68-6.63.18-9.83,1.68-16.46,3.7-16.58,32.78-.12,41.13-6.92,3.88-7.07,4.44-14,0-20.79-4.65-6.77-10.75-5.92-13.88-12.41,7-4.62,1.84-.58,8-1.9,7.21-1.58,6.29-3.6,14.8-5.18,7.59-1.46,12.42-8.23,19.82-12.85,10.57-6.63,5.56-12.56,18.34-14.58,20.58-3.48,7.21-2.9,9.45-21.53,3.12-1.14,6.09-2.46,9.05-3.74,6.49,8.23-1.66,4.91,6.11,10.39,2-1.14,4.45-2.3,6.67-3.44-1.12-9-5.37-7.23-8.15-18.34-10.19,1.58-13.88,10-22,6.93-8-2.9-8.33-14-8-23.23,3-6.93,17.78-10.69,23.52-12.42,9.27-3,8-9.09,16.5-17.32,11.11-10.83,3,.14,8.33-13.85,12.23-.44,6.49-.88,13.7-4.48l.36-.14.74-.3c4.28-1.88,9.83-2.32,15.38-4.18,20.36-6.63,28.69-3.32,43.51,2.58,11.49,4.63,46.13,4.77,48.72,18.94-8.33,8.49-16.3,2.3-28.35,3,2.22,11,3.15,11,13.34,14,1.68-5.19-.74-3.16,2-6.49,3.33.72,6.67,1.3,10,1.88,3.35-11.12,7.23-9.53,18.54-10.83-1.86-7.67-3.9-5.49.36-11.55,11.69,1.16,2.24.16,8,9.25,8.15-1,16.12-9.83,27.41-11,7-.72,6.67,1.88,16.66.86,8.15-.86,7.79-3.75,15.94-.44,3-5.33,0-5.21,7.23-6.49,11.09-1.88,20.74,4.76,31.48,6.21-8-9.53-15.54-7.65-5.75-23.53,12.41-2.46,13.52-.72,18.9,8.37,3-1.67,4.35-3.34,5.84-4.19ZM89.22,462h0c26.06-115.4,88.49-217.53,175-294.42,6.73,2.28,15.62.77,22.29.51,2.4-4.34,3.9-8.09,8.15-9.67a17.27,17.27,0,0,1,6.47-.58c.36,2.16.94,4.34,1.48,6.49,0,.16.38,1.6.2,1.31.18-.3.36.86.54,1.3,11.67-6.63,1.86-6.79,8.15-18.76-9.83-1.88-8.53-.74-14.64-6.79,5.93-6.35,17.4-8.51,25.95-7.93-.58,5.78-3.33,5.63-1.12,10.53,6.67-4,11.31-14.84,22-12.83,2,1.44,4.45,2.74,6.65,4-5.56,5.05-13.88,5.33-21.1,8.23-3.15,31.33,10.19,5.05,5.74,26.55,8-.58,15.74-6.19,18.7-12-3-3.75-7.22-3.75-9.63-8.23a20.87,20.87,0,0,1,11.49-12.74,31.92,31.92,0,0,1,13.52-2.7c58.9.44,30.93,3,49.08,11.12,4.06,1.72,11.29,2.6,13.7,6.07,3.7,5.48.18,10.67,6.09,15,5.19,3.74,5.93-.14,12.79,8.23-1.48,4.76-5,9.67-12.21,9.81-10,.14-4.08-6.49-14.82-5.49.18,9.81,10.19,13.58.92,18.9-8.15,4.77-3-1.72-9.07,1.6-.18.14-.76.44-.94.58a5.29,5.29,0,0,0-.92,1c-1.12,1.16-2,2.18-3,3.18-14.82-3.89-12-2.16-20.93-11.69-3.33-3.61-3.88-4.48-9.83-4-3.7.12-8.51,1.7-12-1.46,7.23-8.81,10.75-.28,21.31-5.49,1.86-.88,13.52-9.67,15.38-11.69-3.15-6.92-.38-1.16-5-5.63-10.39-10.25-13.36-7.65-27.41-7.65-6.6,7.39-11.52,16.5-18.7,20.51-4.33,2.44-9.48,3-16.3.14,3.15,12.41,11.29,2.88,12,17.9-5.37-1-8.15-3.61-13.7-1.74-11.85,4.34-1.3,3.89-.36,6.21,0,.14,5.56.72,0,2.74-6.11,2.16-.94-1.16-12.79-7.95,1.66-2.88,3.33-5.9,5-9a249.43,249.43,0,0,0-33,12.85c-12.79,6.21-24.83,13.28-32.06,19.78-.18,10.83,1.86,3.61,3,16.46,17.22,1,11.67,6,28.91,10.83,3.32.88,7.59,1.74,12.79,2.6,0,8.09-7.41,14.15-2.24,22.52,12,8.21,12.42-7.81,15.38-18,40.75-8.28,21.12-20,31.65-41.77a48.19,48.19,0,0,1,7.07-10.49c3.14.14,15.91,1.44,18.7,2,9.27,1.58,4.28,3.75,14.26,8.07-.2,7.79-4.26,17.9,7.59,16,9.07-1.58,7.05-8.51,18.14-10.25,5,11.41,3.7,16.32,5.93,30,26.69,10.11,14.82,18.34,9.63,37.26,3.33,1.58,6.85,3,10.37,4.46-.18,5.49-.38,10.83-.56,16.18-.56,0-28.53-5.93-30.39-6.49,4.28-11.86,12-12,17.06-24.11-10,1.72-9.27,4.76-16.5,6.92-6.47,1.88-11.47.58-18.34,1.46-2.42,7.79-.18-6.79.56,3.16.36,3.77,2.22.16-.38,4.19-9.25-4.19-6.09-14-23.34-4.91,3.88,1.74,7.77,3.32,11.85,4.91-.54,11.09-1.48,2.72-3.88,10.09-5.93,18.9,16.1,7.21,21.86,6.21-1.48,10-7.77,10-16.68,12.69C375,321.1,372,325,364.26,326.73c0-11.85-1.84-1.88,3.52-10.11-7.79.72-13.52,4.18-20.93,7.23l-.74.28c-9.52,3.77-11,4.34-12,16.16-8.15,2.44-17.6,5.21-23.34,11-5.74,5.33-11.49,10.67-17.06,15.86-.54.44-.94.86-1.28,1.16,2,14.86,0,15.14-9.27,20.94-7.79,4.9-10.37,4.76-17.58,11-23.15,20.22-12,10.81-10.75,45.61-4.81-1.44-9.45-3-13.88-4.62-3.53-23.09,1.28-15.44-17.78-20.78-20.56-5.78-17.78,4-26.31,5.78-9.45,2-14.08-8.37-27.79.28-7.57,5.05-14.8,8.37-16.66,17.32-2.22,10.83-7.23,18.76-6.49,30.75,1.3,32.48,31.68,34.34,39.46,19.2,5.18-10.11,3.9-15.58,20.75-13,1.68,8.67-.94,15-3.15,21.66-1.48,3.89-5.56,11-3.52,16.32,12,4.76,12.41-4.19,28.35,5,1.12,15.44-7.22,32.76,5,41.73,9.43,6.77,10,.72,18.34-.72,9.27-1.58,7.61,4,16.12,5.33,4.81-5.78,2.78-2.16,5.93-9.25,5.56-12.27,7-6.49,20.2-14,1.28-.72,2.4-1.44,3.7-2.3,1.48,3,3.15,5.92,4.61,8.81,9.63-11.12,10.75-.3,21.86,2.74a44.39,44.39,0,0,0,10.82,1.77c8.08.12,8.89-3.7,19.93.11a34.29,34.29,0,0,0,4.45,1.46c.18,0,.74.28.74.58.2.14.74.56.94.74,1.84,2,2,4,3.52,6.19,7.61,7.07,15.2,14.15,22.59,21.08,14.63,5.63,14.63-4.91,31.3,10.81,7,6.49,3.88,6.37,7.77,14.72.56,1.31,1.66,2.6,2.42,4.19,1.48,3.89,3.15,7.63,4.81,11.39,7.59,9.69,18,3.61,28.53,13.58,6.09,5.78,1.48,4,15,6.35,20.93,3.32,12.79,1.46,28.73,13.14,6.09,4.32,7.57,1.86,13.33,5.62,8,10.83,5.91,22.52-.74,32-20.56,29.16-13.52,24.39-14.46,47.49-.74,13.27-4.61,40.7-17.42,44-46.49,12.72-19.46,21.52-31.67,43.89-3.52,6.37-6.11,7.93-8.33,13-9.25,21.06-2.78,28.15-30.19,23.37,2.6,4.48.92,1.44,3.53,5.48,8.13,12.27,9.45,21.53-7.23,24.53-13.88,2.6-8,0-9.27,15-5.37,2.18-7.77,0-11.31,3.47,4.81,8.67.36,1.46,8.53,6.35-1.48,4.76-2.6,9.39-3.9,14-3.14,11.27-4.08.88-5.18,14,4.81,2.16,8.15,1.72,12.41,7.37-.56,4.34-5,16.16-6.29,22.94,6.85,10,12.41,20.64,27,21.67-.18,8.36,1.84,7.49-5.56,9.21-6.31,1.46-19.64-4.32-25.21-7.21-9.63-5.05-18.52-11.69-25-21.22-3.7-5.35-2.22-2.75-6.11-7.79-7-8.79-4.24-12.85-6.29-18.78-1.12-3.47-6.85-7.21-4.45-18.48.56-3.18,5.75-18.34-.54-15.74s4.81,1.44-3.9,5.49c-2.06-5.49-3.7-13.56-4.81-20.36-2.22-11.41-5-11.85-6.31-18.76-2.78-16,4.28-17.78-3.52-44.49-5.12-17.67-3-59.49-8.46-81a33.34,33.34,0,0,0-3.21-8.53c-5-8.07-17.22-11.81-27-18.32a1.66,1.66,0,0,1-1.12-.58c-13.52-9.23-26.31-45.47-37.06-59-5-6.51-8.15-3.61-10.37-13.86-2.4-9.39,1.3-7.79,4.45-15.6-16.48-29.43,21.31-29,13.52-64.37-1.66-6.49-6.47-15.58-10.55-18.46-7.79,3.32-4.08,5.19-8.15,11.53-6.29-3.46-12.61-6.93-18.7-10.37-19.08-17.9-8.89-4.91-14.26-16.6-11.47-24.53-22.41-10.83-36.12-22.94-6.13-5.05-7.23-13-17.4-11.55-15.36,2-6.85,4.34-22.79-2.9-13.52-6.19-27.59-13.41-37-21.8-.38-13,4.45-13.58-3.9-25.69A67,67,0,0,0,89.23,462v0Zm181.36-300h0c3.59-.46,3.59-2,13-4.19a8.28,8.28,0,0,0-2.06-4.18l-.29-.56c-3.59,2.93-7.12,5.92-10.64,9ZM765.68,329.44h0l-.36-.25a28.64,28.64,0,0,1-3.7-2.74c-8.15-7.07-9.83-13.41-18.88-11.85-.2,6.65.72,6.93,4.08,11.27,12.59,15.3,8.71,10.11,18.52,15.74l.36.19c2.33,1.3,5,3.12,8.71,5.72-12.59,10.81-.92,11.95-8.71,15.57l-.36.17a20.51,20.51,0,0,0-2,.86c-2.6-6.35,3.14-3.32-3.53-12.55-3.71-4.77-7.23-6.21-13-8.83-14.46-6.63-12.61-11.81-21.5-20.5-10,.3-7.77,3.34-14.82,6.79-8.51,4-7.21-.72-17.24.14-8.15,14,3.52,2.32-11.31,13.86-17.78,13.42-3.15,27.43-31.67,31.62-2,.28-2.78,0-4.8.72-5.39,1.86-2.24.3-5.39,3.32,2.42,5.49-.92,4.62,8.71,5.92,17.58,2.3,19.84-8.23,32.6-10.83,6.29-1.3,45.75-2.88,48.53-2.18,8.51,9.27,1.48,15.76,1.48,23.53,9.27,4.77,22.41,5.92,27.81,10.83,6.09,5.63,3.15,4.76,6.09,5.76l.36.12c1.12.32,2.74.88,5.57,1.91,7.41,2.44,7,3.89,15,4.48,7.23-23.53-.18-21.08,34.64-10.27,36.3,11.57,20,1,35.38,2.6,7.61.74,5.57,3,16.12,1.74,2.06-4,17-40.72-2.42-36.08-5.75,1.44-1.84,3.46-10,1.44-8.53-2.16-.36-3.74-9.81-2.46-9.27,1.31-20.38,9.25-27.61-18-2.78-9.83-7.79-18.34-19.26-3.48,3,5.05,5,5.49,8.31,10.41a65.52,65.52,0,0,1-5.18,6.21c-6.29,6.05,2.6,3.18-7.59,4.46-5.56-4-4.44-9.23-9.81-16.44-9.45-13.42-3.33-7.23-8.15-20.08C777.1,335.05,770.82,332.61,765.68,329.44ZM963.5,718.05h0c-8.13,4-9.25,13.28-15.36,18.48-6.67,5.92-15.56,3.18-18.16,14.15-3.33,13.7,5.57,9.53-4.26,27.43-3.5,6.63-3.7,23.22,1.68,28.15,16.1,15.14,24.83-23.09,28.53-35.08,2.78-8.53,5.37-18.18,8.33-26.13,3-8.51,7.23-16-.74-27h0ZM936.83,315.33h0c1.3,17.64,12,24.41,19.64,32.48-.94,8.37-3,6.19-2.78,17.9,9.07,6.37,15.74,10.25,27.59,7.07,1.66-14.15-3-13.42-7.41-23.09a15,15,0,0,1,3.14-2.88c3.33-4.34,1.68,1.72,3.33-5.63-8.69-2.74-22.79-11.41-23.87-22.81,4.26-3.32,3-1.3,6.09-3.32,6.85-4.34,1.68,2.28,5.75-5.05-3.5-6.63-7.41-7.81-15.92-4.48C948.7,307,938.87,313.74,936.83,315.33ZM861.08,320h0c-5.74-7.79-5.37-11.69-16.48-12-4.44,4.63-9.63,11.55-12,18.62-3.7,10.69-1.12,3.32-.74,14.86a3.88,3.88,0,0,0,0,1.44c-.18,6.93-1.86-1.3-.76,5.05,8.71-1.74,2-1.6,8.53-3.61,6.11-2,24.83-7.51,30.2-6.19,12.77,2.9,23.52,12.71,38,2.9-.74-12.56-16.3-17.32-27-22.81.56-11.53,3.7-2.44,3-13.56-3.7-.14-5.93-.72-9.45.72-8.33,3.6-3.71,4.63-3.71,5.92.38,6.21,8.33-1.3-.18,6.37-2.42,2-6.31,2-9.27,2.3h0ZM644.72,232.49h0c-.34,20.22,6.87,13.42,13.72,23.39-3.14,8.51-3.7,1.88-7.21,10.67-3.15,7.37.74.74-1.3,13.58,5.37.28,13.33-1.58,20.38-2.18,10-.86,9.83-1.74,13.34-11.71-5.56-6.63-11.11-13.27-16.86-19.9-7.23-10.69,0-3.34-2.22-12.28-1.66-3.18-3.15-6.33-4.63-9.53-9.63,3.2-8.69,2.32-15.2,7.93Z"/>
    <path class="cls-3"
          d="M625.54,108.63,674,212.48c-6.19,70.63-84.24,153-178.91,190.24-90.22,35.51-196.25,28.76-242.58-15.27L209.7,283.79l226.56-18L625.54,108.63Z"/>
    <path class="cls-4" d="M72.13,300.32,71,297.55,344.52,40.49l375.29-7.13,1.13,2.78L451.16,302.39l-379-2.07Z"/>
    <path class="cls-5"
          d="M225,589.38,206.58,707c-.3,1.91,6.17,4.51,9.25.68,4,4.86,9.42,2.87,11-.49,2,3.33,6.83,5.16,10.31.19,3.08,3.83,10,1.16,9.47-2L228.38,589.28a1.8,1.8,0,0,0-3.42.1Z"/>
    <path class="cls-6" d="M71,297.55,343,36.67l376.85-3.31-272,260.87L71,297.55Z"/>
    <path class="cls-2"
          d="M397.09,163.25a4,4,0,1,1,5,6.24L219,317.19l11.28,272.19a4,4,0,0,1-7.42,3L210.46,317.45a4,4,0,0,1,1.2-4.63L397.09,163.25Z"/>
    <path class="cls-7" d="M226.62,570.93a18.21,18.21,0,1,1-18.21,18.21A18.21,18.21,0,0,1,226.62,570.93Z"/>
    <path class="cls-8"
          d="M241.38,584.49a17.56,17.56,0,0,1-17.58,17.59h-.34a17.58,17.58,0,0,1-14.34-7.9,18.2,18.2,0,0,0,17.51,13.17,18.46,18.46,0,0,0,4.06-.45,18.22,18.22,0,0,0,8.49-31,17.53,17.53,0,0,1,2.22,8.56Z"/>
    <path class="cls-9" d="M529.9,550.85l92-57.45c12.87.26,16.72,21.43,7.14,33.39L547.73,579.7,529.9,550.85Z"/>
    <path class="cls-10"
          d="M559.59,456.11l-68.11,106,45.28,143.59L561,615.37,541.85,556.3l42.68-76.43C593.39,460.31,572.16,439.83,559.59,456.11Z"/>
    <path class="cls-9"
          d="M714.08,631.6l-7.7,49.17-3,19.32-78.5-27.69,93.22,139.1,23.41,189.81c3.2-2.64-2.16-173.33.6-177.39,10.59-15.59,17.94-41.85,21.56-80.35l-.58-65.9-.58-35,8-37.45c-19.77-10.93-48.64,0-56.36,26.38Z"/>
    <path class="cls-10"
          d="M535.06,716.13l27.41-131.79,90.1-36.45c11,6.11,15,12.26,6.18,30.8L613.2,602.41l11.66,70c80.52,43.35,106.29,94.5,101.28,158.07,2.78,55.78,12.57,115.06,15.35,170.84l-135.29,3.5L636.52,859Z"/>
    <path class="cls-10" d="M493.94,441.47,495,556.6l30.53-47.5-3.61-60S511.72,425.14,493.94,441.47Z"/>
    <path class="cls-11" d="M561.22,968.43H800.09L804.9,1157a586.2,586.2,0,0,1-248.82,12.66Z"/>
    <path class="cls-12" d="M585.68,968.43H775.63V922.56H585.68Z"/>
    <path class="cls-12" d="M495,459.74,494.62,442s8.11-1.93,8.77,2.16.57,15.44.57,15.44Z"/>
    <path class="cls-12" d="M553.46,468.19,564,453.88s7.6,3.43,5.62,7.07-9,12.56-9,12.56l-7.15-5.33Z"/>
    <path class="cls-12" d="M636.16,557.26l16.05-7.62s5.07,6.62,1.6,8.89-13.88,6.8-13.88,6.8Z"/>
    <path class="cls-12"
          d="M636.66,396.07l351.2-222.88c42-13.2,74.45,71,48.25,85.51L694.46,483c-19.4,12.77-47.82-16.64-57.21-49.64-5-17.53,0-18.08,18.39-30.57Z"/>
    <path class="cls-7"
          d="M867.15,249.84c29.3-2.31,64.77,60.48,55.09,83.63l-47.22,31c2.23-33.71-30-81.76-59.8-81.65l51.93-33Z"/>
    <path class="cls-8" d="M989.31,365.55l-67.06-32.08-47.22,31L929.4,404.8l13.19-34.23,46.72-5Z"/>
    <path class="cls-13"
          d="M653.38,404.42l2.26-1.61c16.32-.36,56.29,49.38,29.11,68.55C665.42,485,645,441,642.36,425.48c7.66-8.62,23.76,16.79,20.75,18.12l-6,2.68s2.92,12,9.24,11.5L689,444.33s-10-35.2-35.62-39.91Z"/>
    <text class="cls-14" transform="translate(1252.1 923.6)">PhD easy</text>
</svg>